<svg width="81" height="50" viewBox="0 0 81 50" fill="none" xmlns="http://www.w3.org/2000/svg">
<g clip-path="url(#clip0)">
<path d="M19.4975 13.2225H34.6798V14.4278H20.8892V23.4997H33.8574V24.7051H20.8892V34.6651H34.8379V35.8705H19.4975V13.2225ZM36.0399 13.2225H37.653L44.8013 23.1825L52.1078 13.2225L62.0459 0.570923L45.7186 24.2293L54.1321 35.8705H52.4558L44.8013 25.276L37.1153 35.8705H35.4705L43.9473 24.2293L36.0399 13.2225ZM54.7331 14.4278V13.2225H72.0347V14.4278H64.0639V35.8705H62.6722V14.4278H54.7331ZM0.503723 13.2225H2.24337L26.232 49.0788L16.3187 35.8705L1.9587 14.9353L1.89544 35.8705H0.503723V13.2225ZM71.8944 34.3014C71.6101 34.3014 71.3968 34.0813 71.3968 33.7969C71.3968 33.5125 71.6101 33.2925 71.8944 33.2925C72.1822 33.2925 72.392 33.5125 72.392 33.7969C72.392 34.0813 72.1822 34.3014 71.8944 34.3014ZM73.262 32.9742H74.0067C74.0168 33.3771 74.3113 33.6479 74.7446 33.6479C75.2286 33.6479 75.5028 33.3568 75.5028 32.8117V29.3584H76.261V32.8151C76.261 33.7969 75.6924 34.3623 74.7514 34.3623C73.8679 34.3623 73.262 33.8138 73.262 32.9742ZM77.2528 32.9302H78.0043C78.0686 33.394 78.5222 33.6886 79.1755 33.6886C79.7848 33.6886 80.2316 33.3737 80.2316 32.9404C80.2316 32.5679 79.9473 32.3445 79.3007 32.1922L78.6711 32.0398C77.7877 31.8333 77.3848 31.4067 77.3848 30.689C77.3848 29.8189 78.0957 29.2399 79.162 29.2399C80.1537 29.2399 80.8781 29.8189 80.9221 30.6416H80.1842C80.1131 30.1913 79.7205 29.9103 79.1518 29.9103C78.5527 29.9103 78.1532 30.198 78.1532 30.6382C78.1532 30.9869 78.4105 31.1866 79.0469 31.3356L79.5851 31.4676C80.587 31.7012 81 32.1075 81 32.8422C81 33.7766 80.2756 34.3623 79.118 34.3623C78.0348 34.3623 77.307 33.8037 77.2528 32.9302Z" fill="#EEEEEE"/>
</g>
<defs>
<clipPath id="clip0">
<rect width="80.4963" height="48.5261" fill="white" transform="translate(0.503723 0.570923)"/>
</clipPath>
</defs>
</svg>
