<svg width="58" height="43" viewBox="0 0 58 43" fill="none" xmlns="http://www.w3.org/2000/svg">
<g clip-path="url(#clip0)">
<path d="M32.882 11.5746L30.9532 14.9173L24.3567 3.48246L4.10678 38.581H17.8173C17.8173 40.4271 19.3127 41.9237 21.1573 41.9237H4.10678C2.91364 41.9237 1.81124 41.2863 1.21477 40.2521C0.618295 39.2179 0.618356 37.9438 1.21493 36.9096L21.4649 1.8111C22.0615 0.776808 23.1641 0.139648 24.3574 0.139648C25.5507 0.139648 26.6534 0.776808 27.25 1.8111L32.882 11.5746Z" fill="#00C58E"/>
<path d="M47.4999 36.9091L34.8108 14.9168L32.882 11.5741L30.9531 14.9168L18.2654 36.9091C17.6689 37.9433 17.6688 39.2174 18.2653 40.2516C18.8617 41.2858 19.9641 41.9232 21.1573 41.9232H44.6038C45.7972 41.9232 46.9001 41.2864 47.4969 40.2522C48.0937 39.2179 48.0938 37.9435 47.4971 36.9091H47.4999ZM21.1573 38.5805L32.882 18.2595L44.6038 38.5805H21.1573L21.1573 38.5805Z" fill="white"/>
<path d="M56.5721 40.2518C55.9755 41.2859 54.8732 41.9232 53.6802 41.9232H44.6038C46.4485 41.9232 47.9438 40.4266 47.9438 38.5805H53.6732L37.416 10.3999L34.8108 14.9168L32.882 11.5741L34.5241 8.72858C35.1207 7.69429 36.2234 7.05713 37.4167 7.05713C38.6099 7.05713 39.7126 7.69429 40.3092 8.72858L56.5721 36.9091C57.1687 37.9433 57.1687 39.2176 56.5721 40.2518Z" fill="#108775"/>
</g>
<defs>
<clipPath id="clip0">
<rect width="56.3619" height="42.0243" fill="white" transform="translate(0.766785)"/>
</clipPath>
</defs>
</svg>
