<svg width="66" height="49" viewBox="0 0 66 49" fill="none" xmlns="http://www.w3.org/2000/svg">
<g clip-path="url(#clip0)">
<path d="M37.8713 13.3649L35.644 17.2248L28.027 4.02077L4.64403 44.5497H20.4759C20.4759 46.6814 22.2026 48.4096 24.3326 48.4096H4.64403C3.26629 48.4096 1.99333 47.6735 1.30457 46.4793C0.615817 45.2851 0.615887 43.8139 1.30476 42.6197L24.6877 2.09082C25.3766 0.896506 26.6499 0.160767 28.0278 0.160767C29.4057 0.160767 30.6789 0.896506 31.3679 2.09082L37.8713 13.3649Z" fill="#00C58E"/>
<path d="M54.7508 42.6196L40.0985 17.2248L37.8712 13.3649L35.644 17.2248L20.9933 42.6196C20.3044 43.8138 20.3043 45.285 20.9931 46.4792C21.6818 47.6734 22.9548 48.4095 24.3325 48.4095H51.4067C52.7847 48.4095 54.0582 47.6742 54.7473 46.4799C55.4365 45.2856 55.4366 43.814 54.7476 42.6196H54.7508ZM24.3325 44.5496L37.8712 21.0847L51.4067 44.5496H24.3325L24.3325 44.5496Z" fill="white"/>
<path d="M65.2266 46.4796C64.5378 47.6737 63.265 48.4096 61.8874 48.4096H51.4067C53.5367 48.4096 55.2635 46.6815 55.2635 44.5497H61.8793L43.1068 12.0092L40.0985 17.2249L37.8713 13.365L39.7675 10.0792C40.4564 8.88491 41.7297 8.14917 43.1076 8.14917C44.4855 8.14917 45.7587 8.88491 46.4476 10.0792L65.2266 42.6197C65.9156 43.814 65.9156 45.2854 65.2266 46.4796Z" fill="#108775"/>
</g>
<defs>
<clipPath id="clip0">
<rect width="65.0821" height="48.5261" fill="white" transform="translate(0.787292)"/>
</clipPath>
</defs>
</svg>
