<svg width="50" height="49" viewBox="0 0 50 49" fill="none" xmlns="http://www.w3.org/2000/svg">
<g clip-path="url(#clip0)">
<path d="M38.5128 39.4012C33.0859 39.4012 25.8839 36.9324 19.6321 33.3961C11.1804 28.6142 4.85385 22.2977 3.51534 17.3036C2.88854 14.9662 3.43446 13.3244 4.00464 12.36C7.47831 6.46001 20.1517 9.38371 30.3098 15.132C38.7615 19.9139 45.0881 26.2304 46.4266 31.2245C47.0534 33.5619 46.5075 35.2037 45.9373 36.1681C44.6008 38.4367 41.9056 39.4012 38.5128 39.4012ZM11.4231 13.1384C7.46213 13.1384 6.95867 14.5255 7.42169 16.2562C8.2709 19.4266 13.077 25.0415 21.6217 29.8779C32.3035 35.9214 41.0948 36.4249 42.4515 34.1159C42.7063 33.6832 42.7305 33.0624 42.5182 32.2719C41.669 29.1015 36.8629 23.4866 28.3183 18.6502C21.3871 14.7276 15.2486 13.1384 11.4231 13.1384Z" fill="#0097A7"/>
<path d="M29.0158 24.2631C29.0158 26.4953 27.2042 28.3069 24.972 28.3069C22.7398 28.3069 20.9282 26.4953 20.9282 24.2631C20.9282 22.0309 22.7398 20.2192 24.972 20.2192C27.2042 20.2192 29.0158 22.0309 29.0158 24.2631Z" fill="#607D8B"/>
<path d="M24.972 48.5261C18.334 48.5261 14.8624 36.3198 14.8624 24.2631C14.8624 12.2063 18.334 0 24.972 0C31.6099 0 35.0816 12.2063 35.0816 24.2631C35.0816 36.3198 31.6099 48.5261 24.972 48.5261ZM24.972 4.04384C22.5578 4.04384 18.9062 12.1073 18.9062 24.2631C18.9062 36.4189 22.5578 44.4823 24.972 44.4823C27.3861 44.4823 31.0377 36.4189 31.0377 24.2631C31.0377 12.1073 27.3861 4.04384 24.972 4.04384Z" fill="#00BCD4"/>
<path d="M29.2989 10.8375C27.8633 11.2823 26.4076 11.8485 24.972 12.4753C26.63 13.1829 28.2677 13.9917 29.865 14.8813L30.229 14.76C29.9661 13.3245 29.6426 12.0102 29.2989 10.8375ZM45.9393 12.3539C43.9578 8.99755 39.0041 8.49207 33.2214 9.76588C33.5854 10.9993 33.8887 12.3135 34.1313 13.6682C35.8095 13.3042 37.2855 13.1425 38.5189 13.1425C42.591 13.1425 42.9408 14.6225 42.5223 16.2563C42.1583 17.6109 41.0665 19.4307 39.267 21.4526C35.6194 25.456 29.9924 29.2997 24.972 31.6229C26.6906 32.4519 28.3284 33.1191 29.865 33.6448C33.2012 31.7361 37.9548 28.8447 42.1381 24.2631C44.342 21.857 45.8584 19.4711 46.4246 17.3077C46.8917 15.583 46.8148 13.8765 45.9393 12.3539ZM30.229 14.76C29.9661 13.3245 29.6426 12.0102 29.2989 10.8375C27.8633 11.2823 26.4076 11.8485 24.972 12.4753C26.63 13.1829 28.2677 13.9917 29.865 14.8813L30.229 14.76ZM19.715 33.7661C19.9778 35.2017 20.3014 36.5361 20.6451 37.7088C22.0806 37.2438 23.5364 36.6979 24.972 36.0711C23.314 35.3432 21.656 34.5344 20.0789 33.6448L19.715 33.7661ZM13.5684 24.2631C17.1229 21.216 21.1829 18.6583 24.972 16.9033C23.2534 16.0743 21.6156 15.407 20.0789 14.8813C16.7428 16.79 13.7564 18.6967 10.677 21.4526C7.91507 23.8506 4.45151 27.6538 3.51941 31.2185C2.35478 35.5717 4.80535 39.4073 11.4251 39.4073C13.0629 39.4073 14.8422 39.1849 16.7226 38.7602C16.3586 37.5269 16.0553 36.2126 15.8127 34.8579C12.0115 35.6667 6.45119 36.0569 7.42172 32.2699C8.19409 29.3927 11.3544 26.2304 13.5684 24.2631Z" fill="#4DD0E1"/>
<path d="M19.0457 28.325C19.1731 30.1468 19.3834 31.8472 19.6543 33.4082C19.7959 33.487 19.9374 33.5679 20.0789 33.6447H20.0809C21.6702 34.5243 23.314 35.333 24.972 36.0508V31.6248C23.8822 31.1032 22.764 30.5209 21.6237 29.8759C20.7239 29.3663 19.8646 28.8487 19.0457 28.325ZM13.5764 24.2569C13.5724 24.259 13.5704 24.261 13.5683 24.263C12.6868 25.0475 11.6536 26.0221 10.681 27.0917C12.0398 28.2907 13.5522 29.4735 15.1859 30.6078C15.0059 28.8831 14.9008 27.1139 14.8704 25.3387C14.4196 24.9767 13.9869 24.6148 13.5764 24.2569ZM20.641 10.8273C20.2932 12.0041 19.9819 13.3163 19.721 14.7499C20.4752 15.0046 21.2516 15.2917 22.0503 15.6132C22.7539 15.8943 23.4757 16.2056 24.2138 16.5453C24.4645 16.6606 24.7172 16.7799 24.972 16.9012V12.4752C23.5283 11.8504 22.0746 11.2964 20.641 10.8273ZM11.4291 9.12488C8.03837 9.12488 5.34113 10.0893 4.00464 12.3579C3.43648 13.3224 2.89056 14.9642 3.51736 17.3015C4.0936 19.4529 5.59589 21.8509 7.79574 24.265C8.75414 23.2116 9.75499 22.2532 10.679 21.4525C10.683 21.4485 10.6891 21.4444 10.6932 21.4404C8.88354 19.4306 7.78766 17.617 7.42371 16.2562C6.95867 14.5275 7.46415 13.1384 11.4251 13.1384C12.6605 13.1384 14.1365 13.3042 15.8005 13.66C16.0553 12.2953 16.3626 10.9871 16.7205 9.7537C14.8462 9.34729 13.0588 9.12488 11.4291 9.12488Z" fill="#008391"/>
<path d="M24.972 20.2192C22.7398 20.2192 20.9282 22.0309 20.9282 24.2631C20.9282 26.4953 22.7398 28.3069 24.972 28.3069V20.2192Z" fill="#546D79"/>
<path d="M19.0477 20.1848C17.6263 21.1028 16.2211 22.1077 14.8725 23.1854C14.8664 23.5453 14.8624 23.9032 14.8624 24.2631C14.8624 24.6209 14.8664 24.9808 14.8725 25.3387C14.9028 27.1119 15.0079 28.8811 15.1879 30.6078C15.3395 32.0657 15.5438 33.4911 15.8005 34.862C15.8046 34.862 15.8086 34.86 15.8127 34.86C16.0553 36.2146 16.3606 37.5289 16.7225 38.7623C16.7205 38.7623 16.7205 38.7623 16.7185 38.7623C18.3825 44.4883 21.1546 48.5261 24.972 48.5261V44.4823C23.4171 44.4823 21.3487 41.138 20.0749 35.511C19.9455 34.9509 19.8242 34.3666 19.715 33.7661H19.719C19.6968 33.6468 19.6766 33.5295 19.6563 33.4082C19.3854 31.8473 19.1751 30.1469 19.0477 28.3251C18.9547 27.0311 18.9062 25.6744 18.9062 24.2631C18.9062 22.8457 18.9568 21.4849 19.0477 20.1848ZM24.972 0C21.1566 0 18.3866 4.03373 16.7205 9.75375C16.3626 10.9871 16.0553 12.2953 15.8005 13.6601C15.5438 15.031 15.3395 16.4564 15.1879 17.9142C16.6336 16.9194 18.1076 16.0177 19.6543 15.126C19.6745 14.9986 19.6968 14.8753 19.721 14.7499C19.9819 13.3164 20.2953 12.0041 20.641 10.8274C21.9067 6.53283 23.6314 4.04384 24.972 4.04384V0Z" fill="#00A4B9"/>
<path d="M20.0789 33.6448L19.719 33.7661H19.715C19.8262 34.3666 19.9455 34.9509 20.0749 35.511C20.2528 36.2894 20.4449 37.0254 20.6451 37.7088C22.0806 37.2438 23.5364 36.6979 24.972 36.0711C23.314 35.3432 21.656 34.5344 20.0789 33.6448ZM20.0789 14.8813C19.9374 14.9622 19.7939 15.0431 19.6543 15.126C18.1076 16.0177 16.6336 16.9194 15.1879 17.9142C13.6775 18.9535 12.1955 20.0959 10.6932 21.4405C10.6891 21.4445 10.6831 21.4485 10.679 21.4526C9.75704 22.2533 8.75619 23.2117 7.79577 24.2651C5.88303 26.3659 4.14014 28.8447 3.51941 31.2185C2.35478 35.5717 4.80535 39.4073 11.4251 39.4073C13.0609 39.4073 14.8401 39.1848 16.7185 38.7602H16.7226C16.3586 37.5269 16.0553 36.2126 15.8127 34.8579C15.8086 34.8579 15.8046 34.86 15.8006 34.86C14.4135 35.1552 12.7919 35.3937 11.3422 35.3937C8.81886 35.3937 6.80705 34.6719 7.42374 32.2699C7.88878 30.5391 9.21718 28.7072 10.6831 27.0917C11.6536 26.0221 12.6848 25.0476 13.5684 24.2631C13.5704 24.261 13.5724 24.259 13.5764 24.257C14.001 23.8931 14.4337 23.5352 14.8725 23.1854C16.2211 22.1097 17.6264 21.1028 19.0478 20.1848C21.0232 18.909 23.033 17.801 24.972 16.9033C24.7172 16.7799 24.4645 16.6606 24.2138 16.5454C23.4758 16.2057 22.7539 15.8964 22.0503 15.6133C21.377 15.3444 20.7199 15.0997 20.0789 14.8813Z" fill="#43B5C4"/>
</g>
<defs>
<clipPath id="clip0">
<rect width="48.5261" height="48.5261" fill="white" transform="translate(0.708923)"/>
</clipPath>
</defs>
</svg>
