<svg width="43" height="43" viewBox="0 0 43 43" fill="none" xmlns="http://www.w3.org/2000/svg">
<g clip-path="url(#clip0)">
<path d="M33.1826 34.1219C28.4829 34.1219 22.2458 31.9839 16.8317 28.9214C9.51244 24.7803 4.03353 19.3101 2.87436 14.9851C2.33155 12.9609 2.80432 11.5391 3.29811 10.7039C6.30634 5.59443 17.2817 8.12639 26.0788 13.1045C33.398 17.2457 38.8769 22.7158 40.0361 27.0408C40.5789 29.065 40.1061 30.4868 39.6123 31.322C38.4549 33.2867 36.1208 34.1219 33.1826 34.1219ZM9.72256 11.378C6.29233 11.378 5.85633 12.5792 6.25731 14.0781C6.99274 16.8237 11.1549 21.6862 18.5547 25.8746C27.8053 31.1084 35.4186 31.5444 36.5936 29.5448C36.8142 29.17 36.8352 28.6325 36.6514 27.9478C35.9159 25.2023 31.7538 20.3397 24.354 16.1513C18.3515 12.7543 13.0355 11.378 9.72256 11.378Z" fill="#0097A7"/>
<path d="M24.9581 21.0122C24.9581 22.9453 23.3892 24.5142 21.4561 24.5142C19.523 24.5142 17.9541 22.9453 17.9541 21.0122C17.9541 19.079 19.523 17.5101 21.4561 17.5101C23.3892 17.5101 24.9581 19.079 24.9581 21.0122Z" fill="#607D8B"/>
<path d="M21.4561 42.0243C15.7075 42.0243 12.701 31.4534 12.701 21.0121C12.701 10.5709 15.7075 0 21.4561 0C27.2047 0 30.2112 10.5709 30.2112 21.0121C30.2112 31.4534 27.2047 42.0243 21.4561 42.0243ZM21.4561 3.50202C19.3654 3.50202 16.2031 10.4851 16.2031 21.0121C16.2031 31.5392 19.3654 38.5222 21.4561 38.5222C23.5468 38.5222 26.7091 31.5392 26.7091 21.0121C26.7091 10.4851 23.5468 3.50202 21.4561 3.50202Z" fill="#00BCD4"/>
<path d="M25.2033 9.38545C23.9601 9.77067 22.6993 10.261 21.4561 10.8038C22.8919 11.4166 24.3103 12.117 25.6936 12.8875L26.0087 12.7824C25.7811 11.5392 25.5009 10.401 25.2033 9.38545ZM39.6141 10.6987C37.8981 7.79203 33.6081 7.35428 28.6002 8.45741C28.9154 9.52553 29.1781 10.6637 29.3882 11.8369C30.8415 11.5217 32.1198 11.3816 33.1879 11.3816C36.7144 11.3816 37.0173 12.6633 36.6549 14.0782C36.3397 15.2513 35.3941 16.8272 33.8358 18.5783C30.6769 22.0453 25.8039 25.3739 21.4561 27.3858C22.9445 28.1038 24.3628 28.6816 25.6936 29.1369C28.5827 27.4839 32.6993 24.98 36.3222 21.0122C38.2308 18.9285 39.544 16.8623 40.0343 14.9887C40.4388 13.4951 40.3723 12.0172 39.6141 10.6987ZM26.0087 12.7824C25.7811 11.5392 25.5009 10.401 25.2033 9.38545C23.9601 9.77067 22.6993 10.261 21.4561 10.8038C22.8919 11.4166 24.3103 12.117 25.6936 12.8875L26.0087 12.7824ZM16.9035 29.2419C17.1311 30.4851 17.4113 31.6408 17.7089 32.6564C18.9522 32.2537 20.2129 31.7809 21.4561 31.2381C20.0203 30.6077 18.5844 29.9073 17.2187 29.1369L16.9035 29.2419ZM11.5804 21.0122C14.6587 18.3734 18.1747 16.1584 21.4561 14.6385C19.9677 13.9206 18.5494 13.3427 17.2187 12.8875C14.3295 14.5404 11.7433 16.1916 9.07646 18.5783C6.68458 20.655 3.6851 23.9486 2.87788 27.0356C1.8693 30.8056 3.99153 34.1272 9.72434 34.1272C11.1427 34.1272 12.6835 33.9346 14.312 33.5669C13.9968 32.4988 13.7341 31.3606 13.524 30.1875C10.2321 30.8879 5.41685 31.2258 6.25733 27.9462C6.92622 25.4545 9.66305 22.7159 11.5804 21.0122Z" fill="#4DD0E1"/>
<path d="M16.3239 24.5299C16.4342 26.1076 16.6163 27.5802 16.8509 28.932C16.9735 29.0003 17.0961 29.0703 17.2187 29.1369H17.2204C18.5967 29.8985 20.0203 30.5989 21.4561 31.2206V27.3876C20.5123 26.9358 19.544 26.4315 18.5564 25.873C17.7772 25.4317 17.0331 24.9835 16.3239 24.5299ZM11.5874 21.0069C11.5839 21.0087 11.5822 21.0104 11.5804 21.0122C10.817 21.6916 9.92219 22.5355 9.07996 23.4618C10.2566 24.5002 11.5664 25.5245 12.9812 26.5068C12.8254 25.0132 12.7343 23.4811 12.7081 21.9437C12.3176 21.6303 11.9429 21.3168 11.5874 21.0069ZM17.7054 9.37669C17.4043 10.3958 17.1346 11.5322 16.9087 12.7737C17.5619 12.9943 18.2342 13.2429 18.9259 13.5213C19.5352 13.7647 20.1604 14.0344 20.7995 14.3286C21.0166 14.4284 21.2355 14.5317 21.4561 14.6367V10.8038C20.2059 10.2627 18.9469 9.78293 17.7054 9.37669ZM9.72783 7.90234C6.79139 7.90234 4.45554 8.73758 3.29812 10.7022C2.80609 11.5374 2.33331 12.9593 2.87613 14.9834C3.37517 16.8465 4.67617 18.9232 6.58127 21.0139C7.41125 20.1016 8.278 19.2717 9.07821 18.5783C9.08171 18.5748 9.08696 18.5713 9.09047 18.5678C7.52331 16.8272 6.57426 15.2566 6.25908 14.0782C5.85635 12.581 6.2941 11.3781 9.72433 11.3781C10.7942 11.3781 12.0724 11.5217 13.5135 11.8299C13.7341 10.6479 14.0003 9.51502 14.3102 8.44691C12.687 8.09495 11.1391 7.90234 9.72783 7.90234Z" fill="#008391"/>
<path d="M21.4561 17.5101C19.523 17.5101 17.9541 19.079 17.9541 21.0122C17.9541 22.9453 19.523 24.5142 21.4561 24.5142V17.5101Z" fill="#546D79"/>
<path d="M16.3256 17.4803C15.0947 18.2753 13.8777 19.1455 12.7098 20.0788C12.7046 20.3905 12.701 20.7004 12.701 21.0121C12.701 21.3221 12.7046 21.6337 12.7098 21.9437C12.7361 23.4793 12.8271 25.0114 12.983 26.5068C13.1143 27.7693 13.2911 29.0037 13.5135 30.1909C13.517 30.1909 13.5205 30.1892 13.524 30.1892C13.7341 31.3623 13.9985 32.5005 14.312 33.5686C14.3102 33.5686 14.3102 33.5686 14.3085 33.5686C15.7496 38.5275 18.1502 42.0243 21.4561 42.0243V38.5222C20.1096 38.5222 18.3183 35.6261 17.2152 30.753C17.1031 30.268 16.998 29.7619 16.9035 29.2419H16.907C16.8877 29.1386 16.8702 29.037 16.8527 28.9319C16.6181 27.5802 16.436 26.1076 16.3256 24.5299C16.2451 23.4093 16.2031 22.2343 16.2031 21.0121C16.2031 19.7847 16.2468 18.6062 16.3256 17.4803ZM21.4561 0C18.1519 0 15.7531 3.49327 14.3102 8.44687C14.0003 9.51499 13.7341 10.6479 13.5135 11.8298C13.2911 13.017 13.1143 14.2515 12.983 15.514C14.2349 14.6525 15.5114 13.8715 16.8509 13.0993C16.8685 12.989 16.8877 12.8822 16.9087 12.7736C17.1346 11.5322 17.406 10.3958 17.7054 9.37666C18.8016 5.65752 20.2952 3.50202 21.4561 3.50202V0Z" fill="#00A4B9"/>
<path d="M17.2187 29.1368L16.907 29.2419H16.9035C16.9998 29.7619 17.1031 30.268 17.2152 30.753C17.3692 31.4271 17.5356 32.0645 17.7089 32.6564C18.9522 32.2536 20.2129 31.7809 21.4561 31.238C20.0203 30.6077 18.5844 29.9073 17.2187 29.1368ZM17.2187 12.8875C17.0961 12.9575 16.9718 13.0275 16.8509 13.0993C15.5114 13.8715 14.2349 14.6525 12.983 15.514C11.675 16.414 10.3915 17.4033 9.09047 18.5677C9.08697 18.5712 9.08172 18.5747 9.07821 18.5782C8.27975 19.2716 7.413 20.1016 6.58127 21.0139C4.92482 22.8332 3.41545 24.9799 2.87788 27.0356C1.8693 30.8055 3.99153 34.1272 9.72434 34.1272C11.1409 34.1272 12.6818 33.9346 14.3085 33.5669H14.312C13.9968 32.4988 13.7341 31.3606 13.524 30.1874C13.5205 30.1874 13.517 30.1892 13.5135 30.1892C12.3123 30.4448 10.908 30.6514 9.65254 30.6514C7.46728 30.6514 5.72503 30.0263 6.25909 27.9461C6.66182 26.4473 7.81223 24.8609 9.08172 23.4618C9.9222 22.5355 10.8152 21.6915 11.5804 21.0121C11.5822 21.0104 11.5839 21.0086 11.5874 21.0069C11.9551 20.6917 12.3298 20.3818 12.7098 20.0789C13.8777 19.1473 15.0947 18.2753 16.3256 17.4804C18.0364 16.3755 19.7769 15.4159 21.4561 14.6385C21.2355 14.5316 21.0166 14.4283 20.7995 14.3285C20.1604 14.0344 19.5352 13.7665 18.9259 13.5213C18.3428 13.2884 17.7737 13.0766 17.2187 12.8875Z" fill="#43B5C4"/>
</g>
<defs>
<clipPath id="clip0">
<rect width="42.0243" height="42.0243" fill="white" transform="translate(0.44397)"/>
</clipPath>
</defs>
</svg>
