<svg width="70" height="43" viewBox="0 0 70 43" fill="none" xmlns="http://www.w3.org/2000/svg">
<g clip-path="url(#clip0)">
<path d="M16.738 11.4508H29.8861V12.4946H17.9432V20.351H29.1739V21.3949H17.9432V30.0204H30.0231V31.0642H16.738V11.4508ZM31.064 11.4508H32.4609L38.6515 20.0763L44.979 11.4508L53.5855 0.494385L39.4459 20.9828L46.7321 31.0642H45.2803L38.6515 21.8893L31.9953 31.0642H30.5709L37.9119 20.9828L31.064 11.4508ZM47.2525 12.4946V11.4508H62.2359V12.4946H55.3332V31.0642H54.1279V12.4946H47.2525ZM0.289185 11.4508H1.79574L22.5702 42.5029L13.9851 31.0642L1.54921 12.9342L1.49443 31.0642H0.289185V11.4508ZM62.1145 29.7054C61.8682 29.7054 61.6836 29.5148 61.6836 29.2685C61.6836 29.0222 61.8682 28.8317 62.1145 28.8317C62.3636 28.8317 62.5454 29.0222 62.5454 29.2685C62.5454 29.5148 62.3636 29.7054 62.1145 29.7054ZM63.2988 28.5561H63.9437C63.9525 28.905 64.2075 29.1395 64.5827 29.1395C65.0019 29.1395 65.2394 28.8874 65.2394 28.4153V25.4247H65.896V28.4183C65.896 29.2685 65.4035 29.7582 64.5886 29.7582C63.8235 29.7582 63.2988 29.2832 63.2988 28.5561ZM66.7549 28.5179H67.4057C67.4614 28.9196 67.8542 29.1747 68.42 29.1747C68.9476 29.1747 69.3346 28.902 69.3346 28.5267C69.3346 28.2042 69.0883 28.0107 68.5284 27.8788L67.9832 27.7468C67.2181 27.568 66.8692 27.1986 66.8692 26.577C66.8692 25.8235 67.4848 25.3221 68.4082 25.3221C69.2672 25.3221 69.8945 25.8235 69.9326 26.5359H69.2935C69.232 26.146 68.8919 25.9027 68.3995 25.9027C67.8806 25.9027 67.5347 26.1519 67.5347 26.533C67.5347 26.835 67.7575 27.008 68.3086 27.137L68.7747 27.2513C69.6424 27.4536 70 27.8055 70 28.4417C70 29.2509 69.3727 29.7582 68.3701 29.7582C67.4321 29.7582 66.8018 29.2744 66.7549 28.5179Z" fill="#EEEEEE"/>
</g>
<defs>
<clipPath id="clip0">
<rect width="69.7108" height="42.0243" fill="white" transform="translate(0.289185 0.494385)"/>
</clipPath>
</defs>
</svg>
